<?xml version="1.0" encoding="UTF-8" standalone="no"?><!DOCTYPE svg PUBLIC "-//W3C//DTD SVG 1.1//EN" "http://www.w3.org/Graphics/SVG/1.1/DTD/svg11.dtd"><svg width="100%" height="100%" viewBox="0 0 3334 3334" version="1.1" xmlns="http://www.w3.org/2000/svg" xmlns:xlink="http://www.w3.org/1999/xlink" xml:space="preserve" xmlns:serif="http://www.serif.com/" style="fill-rule:evenodd;clip-rule:evenodd;stroke-linejoin:round;stroke-miterlimit:2;"><g id="_x30_8_email"><g><g><path d="M1823.63,1657.94c28.584,-3.104 49.235,-28.813 46.13,-57.401c-3.104,-28.61 -28.739,-49.136 -57.421,-46.157c-338.188,36.646 -498.99,-87.916 -574.266,-198.974c-105.182,-155.208 -107.526,-379.255 -5.953,-570.781c101.192,-190.76 278.958,-300.14 487.797,-300.14l0.151,-0c159.099,-0 301.817,64.901 381.776,173.567c83.416,113.349 97.047,270.896 39.468,455.651c-22.583,72.506 -96.281,167.62 -161.135,186.36c-26.448,7.729 -47.354,4.885 -63.729,-8.672c-18.87,-15.693 -25.635,-40.052 -25.073,-49.693c0.104,-0.609 0.151,-1.172 0.203,-1.781l57.068,-570.63c3.052,-28.61 -17.651,-54.271 -46.235,-57.297c-29.093,-3.177 -54.27,17.651 -57.322,46.26l-5.047,47.323c-0.912,-0.677 -1.662,-1.495 -2.584,-2.156c-66.734,-47.99 -160.244,-52.667 -250.244,-12.484c-153.25,68.307 -263.901,285.416 -236.818,464.578c20.318,134.38 115.052,221.406 259.984,238.776c66.526,7.911 148.188,-11.724 208.766,-56.511c8.797,12.641 19.177,24.136 30.771,33.771c42.927,35.604 99.437,45.802 159.198,28.583c104.625,-30.265 199.942,-153.656 231.677,-255.458c85.651,-274.963 17.343,-449.979 -55.032,-548.349c-99.536,-135.271 -273.64,-216.016 -465.697,-216.016l-0.152,0c-248.64,0 -459.973,129.573 -579.807,355.48c-119.427,225.166 -114.823,491.307 11.75,678.052c111.11,163.932 303.292,250.979 548.604,250.979c39.703,0.01 80.802,-2.276 123.172,-6.88Zm-5.239,-746.688l-29.651,309.448c-30.266,49.719 -109.662,76.802 -166.016,70.167c-99.005,-11.875 -155.969,-62.636 -169.323,-150.912c-20.042,-132.573 65.589,-304.567 176.24,-353.901c26.755,-11.927 53.812,-17.88 78.682,-17.88c26.193,0 50,6.635 68.307,19.813c32.808,23.572 47.203,66.197 41.761,123.265Z" style="fill:#fff;fill-rule:nonzero;"/><path d="M3088.84,1127.78l-378.318,-234.281l-0,-789.328c-0,-28.761 -23.297,-52.084 -52.083,-52.084l-2008.59,0c-28.76,0 -52.083,23.323 -52.083,52.084l-0,782.078c-180.802,113.979 -302.396,197.12 -360.235,246.594c-79.448,67.927 -123.187,164.744 -123.187,272.572l-0,1511.71c-0.005,200.781 163.338,364.125 364.094,364.125l2376.48,0c98.109,0 187.109,-39.188 252.646,-102.516c0.119,-0.119 0.281,-0.156 0.395,-0.276c0.058,-0.062 0.068,-0.14 0.125,-0.203c68.266,-66.224 110.907,-158.724 110.907,-261.13l-0,-1511.71c0.005,-90.864 -34.073,-218.099 -130.151,-277.635Zm-378.318,-111.771l263.505,163.182l-263.505,229.839l-0,-393.021Zm351.146,224.932c36.27,41.646 53.161,108.178 53.161,164.474l0,1511.71c0,55.974 -18.182,107.547 -48.391,150.021l-1004.4,-954.307l999.631,-871.901Zm-2359.74,-1084.69l1904.43,0l0,1343.59l-939.792,819.75l-964.635,-841.016l0,-1322.32Zm-104.161,853.339l-0,378.25l-244.683,-213.308c54.99,-40.817 137.615,-96.531 244.683,-164.942Zm-379.261,1907.54l0,-1511.71c0,-62.119 19.771,-116.692 56.156,-161.031l1033.92,901.344l-1007.47,960.401c-50.547,-47.458 -82.61,-114.359 -82.61,-189Zm259.932,259.958c-29.812,0 -58.01,-6.083 -84.703,-15.364l993.693,-947.261l244.901,213.5c9.818,8.547 22.026,12.818 34.229,12.818c12.203,0 24.438,-4.271 34.229,-12.844l282.407,-246.323l1006.76,956.547c-39.468,24.224 -85.416,38.927 -135.036,38.927l-2376.49,0Z" style="fill:#fff;fill-rule:nonzero;"/></g></g></g></svg>