<?xml version="1.0" encoding="UTF-8" standalone="no"?><!DOCTYPE svg PUBLIC "-//W3C//DTD SVG 1.1//EN" "http://www.w3.org/Graphics/SVG/1.1/DTD/svg11.dtd"><svg width="100%" height="100%" viewBox="0 0 3334 3334" version="1.1" xmlns="http://www.w3.org/2000/svg" xmlns:xlink="http://www.w3.org/1999/xlink" xml:space="preserve" xmlns:serif="http://www.serif.com/" style="fill-rule:evenodd;clip-rule:evenodd;stroke-linejoin:round;stroke-miterlimit:2;"><g id="_x32_3_pin"><g><g><path d="M1948.26,2728.73c466.74,-619.818 695.12,-1165.8 695.12,-1661.1c0,-559.969 -438.182,-1015.55 -976.817,-1015.55c-538.511,0 -976.615,455.578 -976.615,1015.55c-0,495.401 228.312,1041.39 694.943,1661.1c-311.922,29.657 -613.386,112.927 -613.386,269.589c0.005,194.401 463.974,282.927 895.058,282.927c431.213,-0 895.281,-88.526 895.281,-282.922c0.005,-156.667 -301.594,-239.937 -613.584,-269.599Zm-1154.14,-1661.1c-0,-502.547 391.385,-911.38 872.443,-911.38c481.161,-0 872.651,408.833 872.651,911.38c-0,536.959 -285.542,1142.4 -872.651,1849.54c-586.954,-707.011 -872.443,-1312.46 -872.443,-1849.54Zm872.443,2109.45c-511.73,0 -790.891,-118.078 -790.891,-178.755c-0,-47.781 195.838,-143.958 584.979,-171.302c52.906,67.516 107.641,135.609 166.109,204.896c9.891,11.724 24.464,18.489 39.803,18.489c15.338,0 29.906,-6.765 39.802,-18.489c58.474,-69.292 113.213,-137.391 166.125,-204.912c389.27,27.323 585.192,123.521 585.192,171.313c0,60.682 -279.234,178.76 -791.119,178.76Z" style="fill:#fff;fill-rule:nonzero;"/><path d="M2318.42,1058.81c-0,-359.422 -292.412,-651.828 -651.854,-651.828c-359.318,0 -651.625,292.412 -651.625,651.828c-0,359.318 292.307,651.651 651.625,651.651c359.442,0 651.854,-292.333 651.854,-651.651Zm-1052.36,372.026c-90.874,-97.776 -146.958,-228.317 -146.958,-372.026c0,-301.974 245.589,-547.661 547.459,-547.661c301.973,-0 547.687,245.693 547.687,547.661c0,143.735 -56.135,274.302 -147.083,372.084c-74.068,-150.521 -228.709,-250.24 -400.61,-250.24c-171.687,0 -326.297,99.688 -400.494,250.182Zm400.5,-146.015c141.614,-0 267.182,88.745 318.01,218.864c-89.771,64.313 -199.396,102.615 -318.01,102.615c-118.61,-0 -228.219,-38.323 -317.964,-102.672c50.979,-130.094 176.531,-218.807 317.964,-218.807Z" style="fill:#fff;fill-rule:nonzero;"/><path d="M1891.33,878.042c0,-123.823 -100.807,-224.584 -224.76,-224.584c-123.823,0 -224.558,100.761 -224.558,224.584c0,123.927 100.735,224.734 224.558,224.734c123.948,0 224.76,-100.807 224.76,-224.734Zm-345.156,-0c-0,-66.401 54.015,-120.417 120.39,-120.417c66.48,0 120.594,54.016 120.594,120.417c0,66.479 -54.12,120.567 -120.594,120.567c-66.374,0 -120.39,-54.088 -120.39,-120.567Z" style="fill:#fff;fill-rule:nonzero;"/></g></g></g></svg>