<?xml version="1.0" encoding="UTF-8" standalone="no"?><!DOCTYPE svg PUBLIC "-//W3C//DTD SVG 1.1//EN" "http://www.w3.org/Graphics/SVG/1.1/DTD/svg11.dtd"><svg width="100%" height="100%" viewBox="0 0 3334 3334" version="1.1" xmlns="http://www.w3.org/2000/svg" xmlns:xlink="http://www.w3.org/1999/xlink" xml:space="preserve" xmlns:serif="http://www.serif.com/" style="fill-rule:evenodd;clip-rule:evenodd;stroke-linejoin:round;stroke-miterlimit:2;"><g id="_x31_3_classic_telephone"><g><g><path d="M300.953,1290.03c103.656,56.511 265.453,14.011 420.891,-34.026c251.896,-70.166 365.573,-137.505 373.333,-351.104c0.177,-5.266 -0.432,-10.526 -1.833,-15.615c-0.151,-0.635 0.328,-5.77 6.739,-15.13c39.901,-58.213 191.219,-129.651 375.495,-148.442c48.474,-5.089 101.089,-7.756 155.995,-7.933c55.057,0.177 107.677,2.849 156.505,7.933c184.125,18.791 335.391,90.229 375.318,148.442c6.406,9.36 6.917,14.495 6.713,15.13c-1.375,5.063 -1.984,10.323 -1.781,15.563c7.526,213.547 121.203,280.917 371.755,350.75c103.61,32.016 209.349,61.469 299.125,61.469c46.084,-0 87.995,-7.782 123.188,-26.959c76.088,-41.224 117.39,-172.145 125.885,-214.666c71.464,-354.818 -195.005,-672.203 -472.817,-816.933c-252.792,-131.734 -619.917,-209.197 -983.714,-206.375c-362.068,-2.593 -731.151,74.667 -983.708,206.375c-277.787,144.704 -544.282,462.089 -472.974,816.98c8.599,42.625 50.229,173.541 125.885,214.541Zm395.229,-939.156c238.266,-124.281 588.224,-197.677 935.214,-194.573l0.713,0c348.026,-1.984 696.74,70.318 935.235,194.573c244.343,127.307 479.635,401.917 418.802,704.115c-10.427,52.364 -46.334,128.859 -73.495,143.583c-73.901,40.234 -254.823,-15.641 -343.219,-42.927c-248.666,-69.302 -290.932,-118.537 -296.781,-248.084c4.12,-22.911 2.036,-55.312 -23.344,-92.317c-63.885,-93.183 -249.177,-172.604 -450.541,-193.151c-52.188,-5.443 -108.313,-8.318 -167.188,-8.495c-58.745,0.203 -114.901,3.052 -166.729,8.495c-201.469,20.547 -386.787,99.968 -450.667,193.125c-25.38,37 -27.463,69.401 -23.37,92.317c-5.953,129.599 -48.291,178.86 -298.333,248.516c-86.948,26.88 -267.87,82.755 -341.771,42.443c-26.932,-14.573 -62.942,-91.172 -73.521,-143.584c-60.713,-302.119 174.625,-576.723 418.995,-704.036Z" style="fill:#fff;fill-rule:nonzero;"/><path d="M3207.14,2836.53l-163.068,-992.281c-41.859,-255.917 -216.88,-427.854 -435.537,-427.854l-486.88,-0l-68.385,-268.375c-27.823,-110.323 -97.86,-176.162 -187.328,-176.162l-433.755,0c-90.589,0 -158.922,64.162 -187.48,176.037l-68.437,268.505l-459.672,0c-218.406,0 -393.448,171.917 -435.563,427.807l-151.385,920.813c-31.838,194.015 -12.87,328.854 57.958,412.239c88.375,104.016 230.891,103.86 359.98,103.964l2224.02,-0l16.782,0.026l16.734,0c126.24,0 265.349,-3.943 347.901,-101.036c62.359,-73.323 80.057,-185.73 54.115,-343.683Zm-1861.5,-1662.9c9.307,-36.442 32.932,-97.604 86.542,-97.604l433.755,0c53.713,0 77.109,61.089 86.364,97.604l61.849,242.766l-730.385,-0l61.875,-242.766Zm1728.03,1939.09c-54.979,64.672 -171.708,64.567 -285.135,64.364l-2234.83,-0.026l-6.157,0c-109.255,0 -223.39,0.052 -280.557,-67.239c-49.135,-57.854 -60.781,-168.177 -34.562,-327.912l151.39,-920.791c25.839,-157.115 128.505,-340.552 332.771,-340.552l1891.94,-0c204.521,-0 307.057,183.411 332.744,340.526l163.115,992.328c20.344,124.156 10.021,211.385 -30.724,259.302Z" style="fill:#fff;fill-rule:nonzero;"/></g><g><path d="M1666.77,3045.17c-383.964,-0 -696.36,-312.396 -696.36,-696.36c0,-383.885 312.396,-696.182 696.36,-696.182c383.859,0 696.156,312.297 696.156,696.183c0,383.958 -312.297,696.359 -696.156,696.359Zm-0,-1288.38c-326.537,-0 -592.193,265.578 -592.193,592.016c0,326.536 265.656,592.192 592.193,592.192c326.437,0 591.989,-265.656 591.989,-592.193c0,-326.437 -265.557,-592.015 -591.989,-592.015Z" style="fill:#fff;fill-rule:nonzero;"/></g><g><path d="M1666.77,2602.64c-139.974,-0 -253.828,-113.855 -253.828,-253.829c-0,-139.869 113.854,-253.651 253.828,-253.651c139.87,0 253.651,113.782 253.651,253.651c-0,139.974 -113.781,253.829 -253.651,253.829Zm-0,-403.313c-82.526,0 -149.662,67.063 -149.662,149.485c0,82.526 67.141,149.661 149.662,149.661c82.448,-0 149.484,-67.141 149.484,-149.662c0,-82.427 -67.036,-149.484 -149.484,-149.484Z" style="fill:#fff;fill-rule:nonzero;"/></g><g><path d="M1666.77,1965.31c-28.761,0 -53.636,-23.323 -53.636,-52.083c0,-28.76 21.771,-52.083 50.532,-52.083l3.104,-0c28.76,-0 52.083,23.323 52.083,52.083c0,28.76 -23.323,52.083 -52.083,52.083Z" style="fill:#fff;fill-rule:nonzero;"/></g><g><path d="M1666.77,2836.69c-28.761,-0.001 -53.636,-23.323 -53.636,-52.084c0,-28.76 21.771,-52.083 50.532,-52.083l3.104,-0c28.76,-0 52.083,23.323 52.083,52.083c0,28.761 -23.323,52.083 -52.083,52.083Z" style="fill:#fff;fill-rule:nonzero;"/></g><g><path d="M1230.98,2402.45c-28.76,-0 -52.083,-21.771 -52.083,-50.531l-0,-3.104c-0,-28.761 23.323,-52.084 52.083,-52.084c28.761,0 52.083,23.323 52.083,52.083c0,28.761 -23.322,53.636 -52.083,53.636Z" style="fill:#fff;fill-rule:nonzero;"/></g><g><path d="M2102.35,2402.45c-28.786,-0 -52.083,-21.771 -52.083,-50.531l-0,-3.104c-0,-28.761 23.297,-52.084 52.083,-52.084c28.787,0 52.083,23.323 52.083,52.083c0,28.761 -23.291,53.636 -52.083,53.636Z" style="fill:#fff;fill-rule:nonzero;"/></g><g><path d="M1357.02,2093.35c-13.224,0 -26.37,-4.833 -36.266,-14.724c-20.344,-20.344 -21.438,-52.208 -1.094,-72.557l2.188,-2.188c20.343,-20.343 53.302,-20.343 73.651,0c20.349,20.344 20.344,53.303 -0,73.651c-10.427,10.454 -24.495,15.818 -38.479,15.818Z" style="fill:#fff;fill-rule:nonzero;"/></g><g><path d="M1973.21,2709.55c-13.276,0 -26.396,-4.833 -36.318,-14.724c-20.292,-20.344 -21.412,-52.208 -1.068,-72.557l2.188,-2.188c20.343,-20.343 53.302,-20.343 73.651,0c20.349,20.344 20.343,53.302 -0,73.651c-10.427,10.454 -24.516,15.818 -38.453,15.818Z" style="fill:#fff;fill-rule:nonzero;"/></g><g><path d="M1359.26,2710.65c-12.693,-0 -25.328,-4.833 -35.224,-14.724l-2.187,-2.188c-20.344,-20.343 -20.344,-53.302 -0,-73.651c20.343,-20.349 53.302,-20.343 73.651,0c20.349,20.344 21.437,54.396 1.094,74.745c-10.428,10.453 -23.933,15.818 -37.334,15.818Z" style="fill:#fff;fill-rule:nonzero;"/></g><g><path d="M1975.45,2094.45c-12.713,-0 -25.328,-4.833 -35.25,-14.724l-2.187,-2.188c-20.344,-20.343 -20.344,-53.302 -0,-73.651c20.343,-20.349 53.302,-20.343 73.651,0c20.349,20.344 21.411,54.396 1.119,74.745c-10.479,10.453 -23.958,15.818 -37.333,15.818Z" style="fill:#fff;fill-rule:nonzero;"/></g></g></g></svg>